<?xml version="1.0" encoding="UTF-8" standalone="no"?>
<!DOCTYPE svg PUBLIC "-//W3C//DTD SVG 1.1//EN" "http://www.w3.org/Graphics/SVG/1.1/DTD/svg11.dtd">
<svg width="100%" height="100%" viewBox="0 0 4961 3508" version="1.1" xmlns="http://www.w3.org/2000/svg" xmlns:xlink="http://www.w3.org/1999/xlink" xml:space="preserve" xmlns:serif="http://www.serif.com/" style="fill-rule:evenodd;clip-rule:evenodd;stroke-linejoin:round;stroke-miterlimit:1.41421;">
    <g id="Layer-3" serif:id="Layer 3" transform="matrix(4.16667,0,0,4.16667,0,0)">
        <g transform="matrix(0.474715,0.88014,0.88014,-0.474715,1203.47,47.1514)">
            <path d="M-121.107,-208.301L358.994,-208.301L350.633,-203.792L-123.057,-188.041L-121.107,-208.301Z" style="fill:rgb(175,62,23);fill-rule:nonzero;"/>
        </g>
        <g transform="matrix(0.717162,0.696906,0.696906,-0.717162,991.289,8.73724)">
            <path d="M-75.567,-186.196L458.784,-186.196L453.209,-180.459L-61.941,-172.955L-75.567,-186.196Z" style="fill:rgb(198,164,23);fill-rule:nonzero;"/>
        </g>
        <g transform="matrix(0.879075,0.476684,0.476684,-0.879075,787.387,90.8278)">
            <path d="M-32.756,-134.106L531.343,-134.106L527.529,-127.073L-17.29,-119.273L-32.756,-134.106Z" style="fill:rgb(10,109,102);fill-rule:nonzero;"/>
        </g>
        <g transform="matrix(0.253928,-0.967223,-0.967223,-0.253928,1122.29,419.115)">
            <path d="M-180.437,253.7L337.651,253.7L341.944,237.347L-185.122,218.437L-180.437,253.7Z" style="fill:rgb(244,157,127);fill-rule:nonzero;"/>
        </g>
        <g transform="matrix(-0.23188,0.972744,0.972744,0.23188,852.025,492.076)">
            <path d="M-254.337,-222.396L174.294,-222.396L175.07,-174.116L-264.642,-203.606L-254.337,-222.396Z" style="fill:rgb(106,196,202);fill-rule:nonzero;"/>
        </g>
        <g transform="matrix(0.274455,0.9616,0.9616,-0.274455,1271.05,214.843)">
            <path d="M-104.617,-145.241L215.573,-145.241L196.288,-139.737L-123.745,-124.815L-104.617,-145.241Z" style="fill:rgb(142,25,19);fill-rule:nonzero;"/>
        </g>
        <g transform="matrix(-0.338871,0.940833,0.940833,0.338871,1215.72,648.676)">
            <path d="M-454.457,-268.545L170.409,-268.545L188.708,-319.35L-448.285,-281.619L-454.457,-268.545Z" style="fill:rgb(220,76,77);fill-rule:nonzero;"/>
        </g>
        <g transform="matrix(-0.210009,0.977699,0.977699,0.210009,1088.82,614.447)">
            <path d="M-454.021,-385.43L315.421,-385.43L294.873,-289.767L-458.011,-366.853L-454.021,-385.43Z" style="fill:rgb(253,231,123);fill-rule:nonzero;"/>
        </g>
        <g transform="matrix(0.673794,0.738919,0.738919,-0.673794,577.462,-144.735)">
            <path d="M-149.678,-378.951L822.012,-378.951L858.397,-339.049L0.851,-213.873L-149.678,-378.951Z" style="fill:rgb(178,26,26);fill-rule:nonzero;"/>
        </g>
        <g transform="matrix(1,0,0,1,0,398.517)">
            <path d="M0,144.185L864,144.185L835.202,115.012L0,0L0,144.185Z" style="fill:rgb(237,108,53);fill-rule:nonzero;"/>
        </g>
        <g transform="matrix(1,0,0,1,0,841.89)">
            <path d="M0,-841.89L0,-577.89L645.744,0L743.588,0L112,-841.89L0,-841.89Z" style="fill:rgb(252,215,43);fill-rule:nonzero;"/>
        </g>
        <g transform="matrix(1,0,0,1,0,795.94)">
            <path d="M0,-139.94L0,45.95L101.58,45.95L642.058,-173.94L595.275,-185.89L0,-139.94Z" style="fill:rgb(22,148,143);fill-rule:nonzero;"/>
        </g>
    </g>
</svg>
