<?xml version="1.0" encoding="UTF-8" standalone="no"?>
<!DOCTYPE svg PUBLIC "-//W3C//DTD SVG 1.1//EN" "http://www.w3.org/Graphics/SVG/1.1/DTD/svg11.dtd">
<svg width="100%" height="100%" viewBox="0 0 3233 3258" version="1.1" xmlns="http://www.w3.org/2000/svg" xmlns:xlink="http://www.w3.org/1999/xlink" xml:space="preserve" xmlns:serif="http://www.serif.com/" style="fill-rule:evenodd;clip-rule:evenodd;stroke-linejoin:round;stroke-miterlimit:1.41421;">
    <g transform="matrix(1,0,0,1,-800.932,-306.589)">
        <g id="Artboard1" transform="matrix(0.652,0,0,0.776238,695.277,511.773)">
            <rect x="162.047" y="-264.331" width="4957.34" height="4196.42" style="fill:none;"/>
            <clipPath id="_clip1">
                <rect x="162.047" y="-264.331" width="4957.34" height="4196.42"/>
            </clipPath>
            <g clip-path="url(#_clip1)">
                <g id="Layer-3" serif:id="Layer 3" transform="matrix(8.24113,0,0,4.64975,-2686.55,-65.7981)">
                    <g transform="matrix(0.717162,0.696906,0.696906,-0.717162,991.289,8.73724)">
                        <path d="M-75.567,-186.196L458.784,-186.196L453.209,-180.459L-61.941,-172.955L-75.567,-186.196Z" style="fill:rgb(198,164,23);fill-rule:nonzero;"/>
                    </g>
                    <g transform="matrix(0.879075,0.476684,0.476684,-0.879075,787.387,90.8278)">
                        <path d="M-32.756,-134.106L531.343,-134.106L527.529,-127.073L-17.29,-119.273L-32.756,-134.106Z" style="fill:rgb(10,109,102);fill-rule:nonzero;"/>
                    </g>
                    <g transform="matrix(0.253928,-0.967223,-0.967223,-0.253928,1122.29,419.115)">
                        <path d="M-180.437,253.7L337.651,253.7L341.944,237.347L-185.122,218.437L-180.437,253.7Z" style="fill:rgb(244,157,127);fill-rule:nonzero;"/>
                    </g>
                    <g transform="matrix(-0.23188,0.972744,0.972744,0.23188,852.025,492.076)">
                        <path d="M-254.337,-222.396L174.294,-222.396L175.07,-174.116L-264.642,-203.606L-254.337,-222.396Z" style="fill:rgb(106,196,202);fill-rule:nonzero;"/>
                    </g>
                    <g transform="matrix(-0.338871,0.940833,0.940833,0.338871,1215.72,648.676)">
                        <path d="M-454.457,-268.545L170.409,-268.545L188.708,-319.35L-448.285,-281.619L-454.457,-268.545Z" style="fill:rgb(220,76,77);fill-rule:nonzero;"/>
                    </g>
                    <g transform="matrix(-0.210009,0.977699,0.977699,0.210009,1088.82,614.447)">
                        <path d="M-454.021,-385.43L315.421,-385.43L294.873,-289.767L-458.011,-366.853L-454.021,-385.43Z" style="fill:rgb(253,231,123);fill-rule:nonzero;"/>
                    </g>
                    <g transform="matrix(0.673794,0.738919,0.738919,-0.673794,577.462,-144.735)">
                        <path d="M-149.678,-378.951L822.012,-378.951L858.397,-339.049L-106.73,-189.514L-149.678,-378.951Z" style="fill:rgb(178,26,26);fill-rule:nonzero;"/>
                    </g>
                    <g transform="matrix(1,0,0,1,0,398.517)">
                        <path d="M0,144.185L864,144.185L835.202,115.012L0,0L0,144.185Z" style="fill:rgb(237,108,53);fill-rule:nonzero;"/>
                    </g>
                    <g transform="matrix(1,0,0,1,0,841.89)">
                        <path d="M0,-841.89L0,-577.89L645.744,0L743.588,0L112,-841.89L0,-841.89Z" style="fill:rgb(252,215,43);fill-rule:nonzero;"/>
                    </g>
                    <g transform="matrix(1,0,0,1,0,795.94)">
                        <path d="M0,-139.94L0,45.95L101.58,45.95L642.058,-173.94L595.275,-185.89L0,-139.94Z" style="fill:rgb(22,148,143);fill-rule:nonzero;"/>
                    </g>
                </g>
                <g transform="matrix(1.13,0,0,0.927678,-1394.54,886.401)">
                    <path d="M1932.68,1207.12L2123.48,1207.12L2123.48,1268.32L2057.48,1268.32L2057.48,1544.92L1996.28,1544.92L1996.28,1268.32L1932.68,1268.32L1932.68,1207.12Z" style="fill-rule:nonzero;"/>
                    <path d="M2206.88,1207.12L2206.88,1346.92L2311.28,1346.92L2311.28,1207.12L2372.48,1207.12L2372.48,1544.92L2311.28,1544.92L2311.28,1408.12L2206.88,1408.12L2206.88,1544.92L2145.08,1544.92L2145.08,1207.12L2206.88,1207.12Z" style="fill-rule:nonzero;"/>
                    <rect x="2392.88" y="1207.12" width="61.2" height="337.8" style="fill-rule:nonzero;"/>
                    <path d="M2679.08,1259.92C2667.68,1240.12 2652.68,1226.32 2634.08,1217.32C2614.88,1208.32 2593.28,1204.72 2572.28,1207.72C2548.88,1210.72 2530.28,1221.52 2515.88,1235.92C2500.88,1252.12 2491.28,1272.52 2489.48,1293.52C2488.28,1308.52 2491.28,1323.52 2497.88,1338.52C2504.48,1352.32 2512.88,1363.72 2526.08,1374.52C2535.68,1381.72 2544.68,1387.72 2554.88,1391.32C2562.68,1394.32 2571.08,1397.32 2580.08,1399.12C2586.68,1400.92 2592.08,1402.72 2598.68,1405.12C2602.88,1406.92 2607.68,1408.72 2611.28,1412.92C2618.48,1417.12 2622.08,1423.12 2624.48,1428.52C2626.88,1433.92 2627.48,1439.32 2627.48,1445.92C2626.28,1455.52 2622.68,1463.32 2616.68,1469.32C2610.08,1475.92 2602.88,1479.52 2593.28,1481.32C2583.08,1483.12 2571.68,1481.32 2561.48,1476.52C2553.08,1472.92 2546.48,1466.32 2541.08,1457.32C2539.28,1454.32 2538.68,1451.32 2538.08,1449.52C2537.48,1447.72 2536.28,1444.72 2535.68,1440.52L2475.08,1448.92C2476.28,1456.72 2477.48,1463.32 2479.28,1468.72C2481.68,1475.32 2483.48,1480.12 2487.08,1486.72C2497.88,1507.72 2515.88,1522.72 2535.08,1531.72C2556.08,1541.92 2579.48,1544.92 2601.08,1541.92C2625.68,1538.92 2646.08,1528.12 2661.08,1511.92C2677.28,1494.52 2686.28,1474.12 2688.68,1450.72C2689.88,1434.52 2687.48,1419.52 2680.28,1403.32C2673.68,1388.32 2663.48,1375.72 2649.68,1364.92C2640.68,1357.12 2631.08,1351.72 2621.48,1348.12C2613.08,1344.52 2604.68,1342.72 2596.28,1340.32C2589.68,1338.52 2584.28,1336.72 2577.68,1334.32C2573.48,1332.52 2568.68,1330.12 2564.48,1327.12C2559.08,1322.32 2555.48,1317.52 2553.68,1313.32C2551.28,1309.12 2550.68,1303.72 2551.28,1298.32C2551.88,1290.52 2554.88,1283.92 2560.28,1278.52C2565.68,1273.12 2572.28,1269.52 2580.08,1268.32C2589.08,1267.12 2598.08,1268.92 2607.68,1273.12C2614.88,1277.32 2620.88,1282.12 2625.08,1289.32L2679.08,1259.92Z" style="fill-rule:nonzero;"/>
                    <rect x="2838.08" y="1207.12" width="61.2" height="337.8" style="fill-rule:nonzero;"/>
                    <path d="M3124.28,1259.92C3112.88,1240.12 3097.88,1226.32 3079.28,1217.32C3060.08,1208.32 3038.48,1204.72 3017.48,1207.72C2994.08,1210.72 2975.48,1221.52 2961.08,1235.92C2946.08,1252.12 2936.48,1272.52 2934.68,1293.52C2933.48,1308.52 2936.48,1323.52 2943.08,1338.52C2949.68,1352.32 2958.08,1363.72 2971.28,1374.52C2980.88,1381.72 2989.88,1387.72 3000.08,1391.32C3007.88,1394.32 3016.28,1397.32 3025.28,1399.12C3031.88,1400.92 3037.28,1402.72 3043.88,1405.12C3048.08,1406.92 3052.88,1408.72 3056.48,1412.92C3063.68,1417.12 3067.28,1423.12 3069.68,1428.52C3072.08,1433.92 3072.68,1439.32 3072.68,1445.92C3071.48,1455.52 3067.88,1463.32 3061.88,1469.32C3055.28,1475.92 3048.08,1479.52 3038.48,1481.32C3028.28,1483.12 3016.88,1481.32 3006.68,1476.52C2998.28,1472.92 2991.68,1466.32 2986.28,1457.32C2984.48,1454.32 2983.88,1451.32 2983.28,1449.52C2982.68,1447.72 2981.48,1444.72 2980.88,1440.52L2920.28,1448.92C2921.48,1456.72 2922.68,1463.32 2924.48,1468.72C2926.88,1475.32 2928.68,1480.12 2932.28,1486.72C2943.08,1507.72 2961.08,1522.72 2980.28,1531.72C3001.28,1541.92 3024.68,1544.92 3046.28,1541.92C3070.88,1538.92 3091.28,1528.12 3106.28,1511.92C3122.48,1494.52 3131.48,1474.12 3133.88,1450.72C3135.08,1434.52 3132.68,1419.52 3125.48,1403.32C3118.88,1388.32 3108.68,1375.72 3094.88,1364.92C3085.88,1357.12 3076.28,1351.72 3066.68,1348.12C3058.28,1344.52 3049.88,1342.72 3041.48,1340.32C3034.88,1338.52 3029.48,1336.72 3022.88,1334.32C3018.68,1332.52 3013.88,1330.12 3009.68,1327.12C3004.28,1322.32 3000.68,1317.52 2998.88,1313.32C2996.48,1309.12 2995.88,1303.72 2996.48,1298.32C2997.08,1290.52 3000.08,1283.92 3005.48,1278.52C3010.88,1273.12 3017.48,1269.52 3025.28,1268.32C3034.28,1267.12 3043.28,1268.92 3052.88,1273.12C3060.08,1277.32 3066.08,1282.12 3070.28,1289.32L3124.28,1259.92Z" style="fill-rule:nonzero;"/>
                    <path d="M3344.48,1271.88L3344.48,1215.2L3344.48,1482.52L3457.28,1482.52L3457.28,1544.32L3344.48,1544.32L3344.48,1544.92L3283.28,1544.92L3283.28,1221.61L3344.48,1271.88Z" style="fill-rule:nonzero;"/>
                    <rect x="3469.88" y="1207.12" width="61.2" height="337.8" style="fill-rule:nonzero;"/>
                    <path d="M3616.88,1544.92L3680.48,1364.92L3775.28,1544.92L3870.08,1364.92L3934.28,1544.92L3999.08,1544.92L3903.68,1275.52L3879.08,1205.92L3847.28,1271.92L3775.28,1420.12L3703.88,1271.92L3672.08,1205.92L3647.48,1275.52L3552.08,1544.92L3616.88,1544.92Z" style="fill-rule:nonzero;"/>
                    <rect x="4014.08" y="1207.12" width="61.2" height="337.8" style="fill-rule:nonzero;"/>
                    <path d="M4096.28,1207.12L4287.08,1207.12L4287.08,1268.32L4221.08,1268.32L4221.08,1544.92L4159.88,1544.92L4159.88,1268.32L4096.28,1268.32L4096.28,1207.12Z" style="fill-rule:nonzero;"/>
                    <path d="M4366.88,1207.12L4366.88,1482.52L4479.68,1482.52L4479.68,1544.32L4366.88,1544.32L4366.88,1544.92L4305.68,1544.92L4305.68,1207.12L4366.88,1207.12Z" style="fill-rule:nonzero;"/>
                    <path d="M4553.48,1267.72L4675.88,1267.72L4675.88,1206.52L4492.28,1206.52L4492.28,1544.92L4675.88,1544.92L4675.88,1483.12L4553.48,1483.12L4553.48,1408.12L4644.68,1408.12L4644.68,1346.92L4553.48,1346.92L4553.48,1267.72Z" style="fill-rule:nonzero;"/>
                    <g transform="matrix(1.02992,0,0,1.02992,-115.412,-36.1087)">
                        <path d="M4864.88,1259.92C4853.48,1240.12 4838.48,1226.32 4819.88,1217.32C4800.68,1208.32 4779.08,1204.72 4758.08,1207.72C4734.68,1210.72 4716.08,1221.52 4701.68,1235.92C4686.68,1252.12 4677.08,1272.52 4675.28,1293.52C4674.08,1308.52 4677.08,1323.52 4683.68,1338.52C4690.28,1352.32 4698.68,1363.72 4711.88,1374.52C4721.48,1381.72 4730.48,1387.72 4740.68,1391.32C4748.48,1394.32 4756.88,1397.32 4765.88,1399.12C4772.48,1400.92 4777.88,1402.72 4784.48,1405.12C4788.68,1406.92 4793.48,1408.72 4797.08,1412.92C4804.28,1417.12 4807.88,1423.12 4810.28,1428.52C4812.68,1433.92 4813.28,1439.32 4813.28,1445.92C4812.08,1455.52 4808.48,1463.32 4802.48,1469.32C4795.88,1475.92 4788.68,1479.52 4779.08,1481.32C4768.88,1483.12 4757.48,1481.32 4747.28,1476.52C4738.88,1472.92 4732.28,1466.32 4726.88,1457.32C4725.08,1454.32 4724.48,1451.32 4723.88,1449.52C4723.28,1447.72 4722.08,1444.72 4721.48,1440.52L4660.88,1448.92C4662.08,1456.72 4663.28,1463.32 4665.08,1468.72C4667.48,1475.32 4669.28,1480.12 4672.88,1486.72C4683.68,1507.72 4701.68,1522.72 4720.88,1531.72C4741.88,1541.92 4765.28,1544.92 4786.88,1541.92C4811.48,1538.92 4831.88,1528.12 4846.88,1511.92C4863.08,1494.52 4872.08,1474.12 4874.48,1450.72C4875.68,1434.52 4873.28,1419.52 4866.08,1403.32C4859.48,1388.32 4849.28,1375.72 4835.48,1364.92C4826.48,1357.12 4816.88,1351.72 4807.28,1348.12C4798.88,1344.52 4790.48,1342.72 4782.08,1340.32C4775.48,1338.52 4770.08,1336.72 4763.48,1334.32C4759.28,1332.52 4754.48,1330.12 4750.28,1327.12C4744.88,1322.32 4741.28,1317.52 4739.48,1313.32C4737.08,1309.12 4736.48,1303.72 4737.08,1298.32C4737.68,1290.52 4740.68,1283.92 4746.08,1278.52C4751.48,1273.12 4758.08,1269.52 4765.88,1268.32C4774.88,1267.12 4783.88,1268.92 4793.48,1273.12C4800.68,1277.32 4806.68,1282.12 4810.88,1289.32L4864.88,1259.92Z" style="fill-rule:nonzero;"/>
                    </g>
                    <g transform="matrix(1.02992,0,0,1.02992,-115.412,-36.1087)">
                        <path d="M5096.48,1259.92C5085.08,1240.12 5070.08,1226.32 5051.48,1217.32C5032.28,1208.32 5010.68,1204.72 4989.68,1207.72C4966.28,1210.72 4947.68,1221.52 4933.28,1235.92C4918.28,1252.12 4908.68,1272.52 4906.88,1293.52C4905.68,1308.52 4908.68,1323.52 4915.28,1338.52C4921.88,1352.32 4930.28,1363.72 4943.48,1374.52C4953.08,1381.72 4962.08,1387.72 4972.28,1391.32C4980.08,1394.32 4988.48,1397.32 4997.48,1399.12C5004.08,1400.92 5009.48,1402.72 5016.08,1405.12C5020.28,1406.92 5025.08,1408.72 5028.68,1412.92C5035.88,1417.12 5039.48,1423.12 5041.88,1428.52C5044.28,1433.92 5044.88,1439.32 5044.88,1445.92C5043.68,1455.52 5040.08,1463.32 5034.08,1469.32C5027.48,1475.92 5020.28,1479.52 5010.68,1481.32C5000.48,1483.12 4989.08,1481.32 4978.88,1476.52C4970.48,1472.92 4963.88,1466.32 4958.48,1457.32C4956.68,1454.32 4956.08,1451.32 4955.48,1449.52C4954.88,1447.72 4953.68,1444.72 4953.08,1440.52L4892.48,1448.92C4893.68,1456.72 4894.88,1463.32 4896.68,1468.72C4899.08,1475.32 4900.88,1480.12 4904.48,1486.72C4915.28,1507.72 4933.28,1522.72 4952.48,1531.72C4973.48,1541.92 4996.88,1544.92 5018.48,1541.92C5043.08,1538.92 5063.48,1528.12 5078.48,1511.92C5094.68,1494.52 5103.68,1474.12 5106.08,1450.72C5107.28,1434.52 5104.88,1419.52 5097.68,1403.32C5091.08,1388.32 5080.88,1375.72 5067.08,1364.92C5058.08,1357.12 5048.48,1351.72 5038.88,1348.12C5030.48,1344.52 5022.08,1342.72 5013.68,1340.32C5007.08,1338.52 5001.68,1336.72 4995.08,1334.32C4990.88,1332.52 4986.08,1330.12 4981.88,1327.12C4976.48,1322.32 4972.88,1317.52 4971.08,1313.32C4968.68,1309.12 4968.08,1303.72 4968.68,1298.32C4969.28,1290.52 4972.28,1283.92 4977.68,1278.52C4983.08,1273.12 4989.68,1269.52 4997.48,1268.32C5006.48,1267.12 5015.48,1268.92 5025.08,1273.12C5032.28,1277.32 5038.28,1282.12 5042.48,1289.32L5096.48,1259.92Z" style="fill-rule:nonzero;"/>
                    </g>
                </g>
            </g>
        </g>
    </g>
</svg>
