<?xml version="1.0" encoding="UTF-8" standalone="no"?>
<svg width="114px" height="213px" viewBox="0 0 114 213" version="1.1" xmlns="http://www.w3.org/2000/svg" xmlns:xlink="http://www.w3.org/1999/xlink">
    <!-- Generator: Sketch 50.2 (55047) - http://www.bohemiancoding.com/sketch -->
    <title>Artboard</title>
    <desc>Created with Sketch.</desc>
    <defs></defs>
    <g id="Artboard" stroke="none" stroke-width="1" fill="none" fill-rule="evenodd">
        <g id="icon-fuel" transform="translate(-6.000000, 4.000000)" fill="#F26E3D">
            <path d="M20.883,105.2675 C21.508,128.2335 40.385,146.7235 63.5,146.7235 C86.615,146.7235 105.492,128.2335 106.117,105.2675 L63.5,22.1865 L20.883,105.2675 Z M63.5,156.7235 C34.478,156.7235 10.867,133.1125 10.867,104.0905 L10.867,102.8825 L63.5,0.2765 L116.133,102.8825 L116.133,104.0905 C116.133,133.1125 92.522,156.7235 63.5,156.7235 Z" id="Fill-1"></path>
            <path d="M32.4508563,179.047937 L32.4508563,185.383937 L39.7468563,185.383937 L39.7468563,190.279937 L32.4508563,190.279937 L32.4508563,201.223937 L27.5548563,201.223937 L27.5548563,174.151937 L42.2428563,174.151937 L42.2428563,179.047937 L32.4508563,179.047937 Z M49.4154282,174.199937 L49.4154282,189.895937 C49.4154282,191.431937 49.3674282,192.967937 49.8954282,194.071937 C50.2794282,194.887937 50.8554282,195.559937 51.6234282,196.039937 C52.3434282,196.519937 53.1594282,196.759937 54.0234282,196.759937 C54.7914282,196.759937 55.5594282,196.567937 56.2794282,196.135937 C56.9994282,195.751937 57.5754282,195.175937 58.0074282,194.455937 C58.7274282,193.303937 58.6314282,191.719937 58.6314282,190.135937 L58.6314282,174.199937 L63.5754282,174.199937 L63.5754282,190.135937 C63.5754282,192.391937 63.5754282,194.647937 62.2314282,196.951937 C61.3194282,198.439937 60.1674282,199.591937 58.7274282,200.407937 C57.3354282,201.223937 55.7514282,201.655937 54.0234282,201.655937 C52.1514282,201.655937 50.4714282,201.175937 48.9354282,200.167937 C47.3514282,199.159937 46.2474282,197.863937 45.4314282,196.183937 C44.3754282,194.023937 44.4714282,191.911937 44.4714282,189.847937 C44.5194282,189.463937 44.5194282,189.079937 44.5194282,188.743937 L44.5194282,174.199937 L49.4154282,174.199937 Z M70.892,179.047937 L70.892,185.383937 L78.188,185.383937 L78.188,190.279937 L70.892,190.279937 L70.892,196.279937 L80.684,196.279937 L80.684,201.223937 L65.996,201.223937 L65.996,174.151937 L80.684,174.151937 L80.684,179.047937 L70.892,179.047937 Z M88.3845718,174.199937 L88.3845718,196.231937 L97.4085718,196.231937 L97.4085718,201.175937 L88.3845718,201.175937 L88.3845718,201.223937 L83.4885718,201.223937 L83.4885718,174.199937 L88.3845718,174.199937 Z" id="FUEL"></path>
        </g>
    </g>
</svg>