<?xml version="1.0" encoding="UTF-8" standalone="no"?>
<svg width="166px" height="213px" viewBox="0 0 166 213" version="1.1" xmlns="http://www.w3.org/2000/svg" xmlns:xlink="http://www.w3.org/1999/xlink">
    <!-- Generator: Sketch 50.2 (55047) - http://www.bohemiancoding.com/sketch -->
    <title>Artboard</title>
    <desc>Created with Sketch.</desc>
    <defs></defs>
    <g id="Artboard" stroke="none" stroke-width="1" fill="none" fill-rule="evenodd">
        <g id="icon-rest" transform="translate(-2.449676, 0.713281)" fill="#FDD43F">
            <g id="Group-18" transform="translate(0.949676, 0.789057)">
                <path d="M85.1990152,44.8483813 C63.3650409,44.8483813 45.602452,62.6109702 45.602452,84.4449444 C45.602452,106.278919 63.3650409,124.042435 85.1990152,124.042435 C107.032989,124.042435 124.796506,106.278919 124.796506,84.4449444 C124.796506,62.6109702 107.032989,44.8483813 85.1990152,44.8483813 M85.1990152,129.605703 C60.2978256,129.605703 40.0391836,109.347061 40.0391836,84.4449444 C40.0391836,59.5437549 60.2978256,39.2851128 85.1990152,39.2851128 C110.100205,39.2851128 130.359774,59.5437549 130.359774,84.4449444 C130.359774,109.347061 110.100205,129.605703 85.1990152,129.605703" id="Fill-2"></path>
                <path d="M33.4531082,32.6991302 L38.1364531,50.1770652 L50.9310433,37.3815478 L33.4531082,32.6991302 Z M35.2574616,60.9243726 L25.5857194,24.8317414 L61.6783507,34.5016292 L35.2574616,60.9243726 Z" id="Fill-4"></path>
                <path d="M38.1367312,118.714771 L33.4533864,136.192706 L50.9313214,131.509361 L38.1367312,118.714771 Z M25.5850704,144.059167 L35.2577398,107.966536 L61.6786288,134.388352 L25.5850704,144.059167 Z" id="Fill-6"></path>
                <path d="M76.1528625,141.955696 L85.1996642,157.625568 L94.2464659,141.955696 L76.1528625,141.955696 Z M85.1996642,168.752105 L66.5163544,136.392427 L103.882047,136.392427 L85.1996642,168.752105 Z" id="Fill-8"></path>
                <path d="M119.468285,131.509176 L136.94622,136.19252 L132.262875,118.714585 L119.468285,131.509176 Z M144.813609,144.058982 L108.720051,134.388167 L135.142794,107.966351 L144.813609,144.058982 Z" id="Fill-10"></path>
                <path d="M142.710137,75.3984209 L142.710137,93.4929515 L158.38001,84.4452226 L142.710137,75.3984209 Z M137.146869,103.128532 L137.146869,65.7619127 L169.506547,84.4452226 L137.146869,103.128532 Z" id="Fill-12"></path>
                <path d="M119.468285,37.381826 L132.262875,50.1764162 L136.94622,32.6994084 L119.468285,37.381826 Z M135.142794,60.9246508 L108.720051,34.5019073 L144.813609,24.8310924 L135.142794,60.9246508 Z" id="Fill-14"></path>
                <path d="M76.1528625,26.9348423 L94.2464659,26.9348423 L85.1996642,11.2649695 L76.1528625,26.9348423 Z M103.882047,32.4981108 L66.5163544,32.4981108 L85.1996642,0.138432663 L103.882047,32.4981108 Z" id="Fill-16"></path>
                <path d="M0.892503415,84.444759 L33.2521815,103.128996 L33.2521815,65.7623763 L0.892503415,84.444759 Z M12.0190403,84.444759 L27.6889131,75.3979573 L27.6889131,93.4924879 L12.0190403,84.444759 Z" id="Fill-1"></path>
            </g>
            <path d="M59.9645315,194.526656 L65.9165315,204.510656 L60.2045315,204.510656 L54.7325315,195.342656 L54.0125315,195.342656 L54.0125315,204.510656 L49.1165315,204.510656 L49.1165315,177.486656 L54.0125315,177.486656 L54.0125315,177.534656 L56.3165315,177.534656 C58.7645315,177.534656 60.9725315,178.446656 62.6045315,180.126656 C64.2365315,181.854656 65.2445315,183.966656 65.2445315,186.414656 C65.2445315,188.862656 64.2845315,191.118656 62.6045315,192.702656 C61.7885315,193.518656 60.9245315,194.094656 59.9645315,194.526656 Z M54.0125315,182.430656 L54.0125315,190.398656 L56.3165315,190.398656 C57.4205315,190.398656 58.3805315,190.014656 59.1485315,189.246656 C59.9165315,188.478656 60.3005315,187.518656 60.3005315,186.414656 C60.3005315,185.358656 59.9165315,184.398656 59.1485315,183.582656 C58.3805315,182.814656 57.4205315,182.430656 56.3165315,182.430656 L54.0125315,182.430656 Z M72.8491035,182.334656 L72.8491035,188.670656 L80.1451035,188.670656 L80.1451035,193.566656 L72.8491035,193.566656 L72.8491035,199.566656 L82.6411035,199.566656 L82.6411035,204.510656 L67.9531035,204.510656 L67.9531035,177.438656 L82.6411035,177.438656 L82.6411035,182.334656 L72.8491035,182.334656 Z M101.765676,181.710656 L97.4456755,184.062656 C97.1096755,183.486656 96.6296755,183.102656 96.0536755,182.766656 C95.2856755,182.430656 94.5656755,182.286656 93.8456755,182.382656 C93.2216755,182.478656 92.6936755,182.766656 92.2616755,183.198656 C91.8296755,183.630656 91.5896755,184.158656 91.5416755,184.782656 C91.4936755,185.214656 91.5416755,185.646656 91.7336755,185.982656 C91.8776755,186.318656 92.1656755,186.702656 92.5976755,187.086656 C92.9336755,187.326656 93.3176755,187.518656 93.6536755,187.662656 C94.1816755,187.854656 94.6136755,187.998656 95.1416755,188.142656 C95.8136755,188.334656 96.4856755,188.478656 97.1576755,188.766656 C97.9256755,189.054656 98.6936755,189.486656 99.4136755,190.110656 C100.517676,190.974656 101.333676,191.982656 101.861676,193.182656 C102.437676,194.478656 102.629676,195.678656 102.533676,196.974656 C102.341676,198.846656 101.621676,200.478656 100.325676,201.870656 C99.1256755,203.166656 97.4936755,204.030656 95.5256755,204.270656 C93.7976755,204.510656 91.9256755,204.270656 90.2456755,203.454656 C88.7096755,202.734656 87.2696755,201.534656 86.4056755,199.854656 C86.1176755,199.326656 85.9736755,198.942656 85.7816755,198.414656 C85.6376755,197.982656 85.5416755,197.454656 85.4456755,196.830656 L90.2936755,196.158656 C90.3416755,196.494656 90.4376755,196.734656 90.4856755,196.878656 C90.5336755,197.022656 90.5816755,197.262656 90.7256755,197.502656 C91.1576755,198.222656 91.6856755,198.750656 92.3576755,199.038656 C93.1736755,199.422656 94.0856755,199.566656 94.9016755,199.422656 C95.6696755,199.278656 96.2456755,198.990656 96.7736755,198.462656 C97.2536755,197.982656 97.5416755,197.358656 97.6376755,196.590656 C97.6376755,196.062656 97.5896755,195.630656 97.3976755,195.198656 C97.2056755,194.766656 96.9176755,194.286656 96.3416755,193.950656 C96.0536755,193.614656 95.6696755,193.470656 95.3336755,193.326656 C94.8056755,193.134656 94.3736755,192.990656 93.8456755,192.846656 C93.1256755,192.702656 92.4536755,192.462656 91.8296755,192.222656 C91.0136755,191.934656 90.2936755,191.454656 89.5256755,190.878656 C88.4696755,190.014656 87.7976755,189.102656 87.2696755,187.998656 C86.7416755,186.798656 86.5016755,185.598656 86.5976755,184.398656 C86.7416755,182.718656 87.5096755,181.086656 88.7096755,179.790656 C89.8616755,178.638656 91.3496755,177.774656 93.2216755,177.534656 C94.9016755,177.294656 96.6296755,177.582656 98.1656755,178.302656 C99.6536755,179.022656 100.853676,180.126656 101.765676,181.710656 Z M105.002248,177.486656 L120.266248,177.486656 L120.266248,182.382656 L114.986248,182.382656 L114.986248,204.510656 L110.090248,204.510656 L110.090248,182.382656 L105.002248,182.382656 L105.002248,177.486656 Z" id="REST"></path>
        </g>
    </g>
</svg>