<?xml version="1.0" encoding="UTF-8" standalone="no"?>
<svg width="206px" height="213px" viewBox="0 0 206 213" version="1.1" xmlns="http://www.w3.org/2000/svg" xmlns:xlink="http://www.w3.org/1999/xlink">
    <!-- Generator: Sketch 50.2 (55047) - http://www.bohemiancoding.com/sketch -->
    <title>Artboard</title>
    <desc>Created with Sketch.</desc>
    <defs></defs>
    <g id="Artboard" stroke="none" stroke-width="1" fill="none" fill-rule="evenodd">
        <g id="icon-move" transform="translate(0.071484, 53.251867)" fill="#D01F29">
            <path d="M54.7296576,151.972071 L49.5456576,151.972071 L57.1776576,130.420071 L59.1456576,124.852071 L61.6896576,130.132071 L67.4016576,141.988071 L73.1616576,130.132071 L75.7056576,124.852071 L77.6736576,130.420071 L85.3056576,151.972071 L80.1216576,151.972071 L74.9856576,137.572071 L67.4016576,151.972071 L59.8176576,137.572071 L54.7296576,151.972071 Z M101.79023,124.084071 C105.77423,124.084071 109.23023,125.620071 111.87023,128.260071 C114.51023,130.900071 116.04623,134.356071 116.04623,138.340071 C116.04623,142.324071 114.51023,145.780071 111.87023,148.420071 C109.23023,151.060071 105.77423,152.596071 101.79023,152.596071 C97.8062296,152.596071 94.3502296,151.060071 91.7102296,148.420071 C89.0702296,145.780071 87.5342296,142.324071 87.5342296,138.340071 C87.5342296,134.356071 89.0702296,130.900071 91.7102296,128.260071 C94.3502296,125.620071 97.8062296,124.084071 101.79023,124.084071 Z M108.41423,131.764071 C106.68623,130.036071 104.43023,128.980071 101.79023,128.980071 C99.2462296,128.980071 96.9422296,130.036071 95.2142296,131.764071 C93.4862296,133.492071 92.4302296,135.796071 92.4302296,138.340071 C92.4302296,140.980071 93.4862296,143.236071 95.2142296,144.964071 C96.8942296,146.644071 99.2462296,147.700071 101.79023,147.700071 C104.43023,147.700071 106.68623,146.692071 108.41423,144.964071 C110.14223,143.236071 111.15023,140.980071 111.15023,138.340071 C111.15023,135.796071 110.09423,133.444071 108.41423,131.764071 Z M119.474802,125.188071 L126.962802,140.740071 L134.354802,125.188071 L139.730802,125.188071 L129.170802,147.316071 L126.962802,151.972071 L124.706802,147.316071 L114.098802,125.188071 L119.474802,125.188071 Z M146.519374,129.796071 L146.519374,136.132071 L153.815374,136.132071 L153.815374,141.028071 L146.519374,141.028071 L146.519374,147.028071 L156.311374,147.028071 L156.311374,151.972071 L141.623374,151.972071 L141.623374,124.900071 L156.311374,124.900071 L156.311374,129.796071 L146.519374,129.796071 Z" id="MOVE"></path>
            <g id="Group" transform="translate(0.928516, 0.913758)">
                <polyline id="Fill-2" points="177.43221 42.7349284 43.312288 42.7349284 43.312288 23.8872722 177.43221 23.8872722"></polyline>
                <polyline id="Fill-3" points="19.4897357 47.6934641 153.6106 47.6934641 153.6106 66.5411203 19.4897357 66.5411203"></polyline>
                <polygon id="Fill-4" points="0.868502808 90.3473122 134.989367 90.3473122 134.989367 71.4996559 0.868502808 71.4996559"></polygon>
                <polyline id="Fill-1" points="203.254385 18.9286423 69.1335209 18.9286423 69.1335209 0.0809860229 203.254385 0.0809860229"></polyline>
            </g>
        </g>
    </g>
</svg>