<?xml version="1.0" encoding="UTF-8" standalone="no"?>
<svg width="158px" height="213px" viewBox="0 0 158 213" version="1.1" xmlns="http://www.w3.org/2000/svg" xmlns:xlink="http://www.w3.org/1999/xlink">
    <!-- Generator: Sketch 50.2 (55047) - http://www.bohemiancoding.com/sketch -->
    <title>Artboard</title>
    <desc>Created with Sketch.</desc>
    <defs>
        <polygon id="path-1" points="0.143284571 0.327347259 48.4971511 0.327347259 48.4971511 48.6817749 0.143284571 48.6817749"></polygon>
    </defs>
    <g id="Artboard" stroke="none" stroke-width="1" fill="none" fill-rule="evenodd">
        <g id="icon-mind" transform="translate(0.071484, 13.251867)">
            <g id="Group-9" transform="translate(0.428516, 0.607931)">
                <g id="Group-6" transform="translate(37.000000, 0.000000)">
                    <mask id="mask-2" fill="white">
                        <use xlink:href="#path-1"></use>
                    </mask>
                    <g id="Clip-5"></g>
                    <path d="M11.9165625,27.0796617 L34.0078261,34.1915147 L26.8959731,12.1002511 C24.9954884,10.5327254 22.6320412,9.67975196 20.1376551,9.67975196 C17.2944104,9.67975196 14.6232567,10.787121 12.6133446,12.7970331 C10.6024971,14.80601 9.49606339,17.4780989 9.49606339,20.3204084 C9.49606339,22.8157298 10.3481015,25.179177 11.9165625,27.0796617 Z M48.4971511,48.6817749 L6.7977867,35.2577315 L5.99999467,34.4590042 C2.22334258,30.6823521 0.143284571,25.6608451 0.143284571,20.3204084 C0.143284571,14.9799717 2.22334258,9.95940005 5.99999467,6.18274797 C9.77571148,2.40703116 14.7962831,0.326973147 20.1376551,0.326973147 C25.4780918,0.326973147 30.4986635,2.40703116 34.2753156,6.18368324 L35.0740429,6.98147528 L48.4971511,48.6817749 Z" id="Fill-4" fill="#14968F" mask="url(#mask-2)"></path>
                </g>
                <path d="M92.608817,12.1006252 L85.496964,34.1909535 L107.586357,27.0800358 C111.024439,22.90402 110.793425,16.6993866 106.891446,12.796472 C104.881533,10.7865598 102.21038,9.68012608 99.3680703,9.68012608 C96.8727489,9.68012608 94.5083664,10.5321642 92.608817,12.1006252 Z M71.0076391,48.6812137 L84.4307472,6.98184939 L85.2294745,6.18312208 C89.0061266,2.40646999 94.0276336,0.327347259 99.3680703,0.327347259 C104.708507,0.327347259 109.729079,2.40646999 113.505731,6.18312208 C121.300337,13.9786632 121.300337,26.6629019 113.505731,34.458443 L112.706068,35.2571703 L71.0076391,48.6812137 Z" id="Fill-7" fill="#14968F"></path>
                <path d="M0.524162612,77.7664853 L155.981376,77.7664853 L155.981376,37.0650625 L0.524162612,37.0650625 L0.524162612,77.7664853 Z M9.87694143,68.4137065 L146.628597,68.4137065 L146.628597,46.4178413 L9.87694143,46.4178413 L9.87694143,68.4137065 Z" id="Fill-1" fill="#14968F"></path>
                <path d="M7.49665922,150.579739 L149.007944,150.579739 L149.007944,68.4127712 L7.49665922,68.4127712 L7.49665922,150.579739 Z M16.8503733,141.22696 L139.6561,141.22696 L139.6561,77.76555 L16.8503733,77.76555 L16.8503733,141.22696 Z" id="Fill-2" fill="#14968F"></path>
                <path d="M64.6617786,150.579739 L91.8418892,150.579739 L91.8418892,37.0650625 L64.6617786,37.0650625 L64.6617786,150.579739 Z M74.0145574,141.227895 L82.4891103,141.227895 L82.4891103,46.4178413 L74.0145574,46.4178413 L74.0145574,141.227895 Z" id="Fill-3" fill="#14968F"></path>
            </g>
            <path d="M37.3713716,191.972071 L32.1873716,191.972071 L39.8193716,170.420071 L41.7873716,164.852071 L44.3313716,170.132071 L50.0433716,181.988071 L55.8033716,170.132071 L58.3473716,164.852071 L60.3153716,170.420071 L67.9473716,191.972071 L62.7633716,191.972071 L57.6273716,177.572071 L50.0433716,191.972071 L42.4593716,177.572071 L37.3713716,191.972071 Z M75.0719436,164.948071 L75.0719436,191.972071 L70.1759436,191.972071 L70.1759436,164.948071 L75.0719436,164.948071 Z M97.0765156,164.996071 L97.0765156,191.876071 L92.8045156,187.412071 L82.6765156,176.996071 L82.6765156,191.828071 L77.7805156,191.828071 L77.7805156,164.996071 L82.0525156,169.460071 L92.1805156,179.876071 L92.1805156,164.996071 L97.0765156,164.996071 Z M104.777088,169.892071 L104.777088,187.076071 L107.897088,187.076071 C110.249088,187.076071 112.409088,186.068071 113.945088,184.532071 C115.481088,182.996071 116.489088,180.836071 116.489088,178.484071 C116.489088,176.132071 115.481088,173.972071 113.945088,172.436071 C112.409088,170.852071 110.249088,169.892071 107.897088,169.892071 L104.777088,169.892071 Z M104.777088,164.948071 L104.777088,164.996071 L107.897088,164.996071 C111.593088,164.996071 115.001088,166.484071 117.449088,168.932071 C119.897088,171.380071 121.385088,174.692071 121.385088,178.484071 C121.385088,182.180071 119.897088,185.588071 117.449088,188.036071 C115.001088,190.484071 111.593088,191.972071 107.897088,191.972071 L99.8810876,191.972071 L99.8810876,164.948071 L104.777088,164.948071 Z" id="MIND" fill="#14968F"></path>
        </g>
    </g>
</svg>