<?xml version="1.0" encoding="UTF-8" standalone="no"?>
<!DOCTYPE svg PUBLIC "-//W3C//DTD SVG 1.1//EN" "http://www.w3.org/Graphics/SVG/1.1/DTD/svg11.dtd">
<svg width="100%" height="100%" viewBox="0 0 887 1132" version="1.1" xmlns="http://www.w3.org/2000/svg" xmlns:xlink="http://www.w3.org/1999/xlink" xml:space="preserve" xmlns:serif="http://www.serif.com/" style="fill-rule:evenodd;clip-rule:evenodd;stroke-linejoin:round;stroke-miterlimit:1.41421;">
    <g id="Layer-1" serif:id="Layer 1" transform="matrix(4.16667,0,0,4.16667,0,0)">
        <g>
            <path d="M4.37,224.644L7.983,224.644L7.983,257.091L21.777,257.091L21.777,260.557L4.37,260.557L4.37,224.644Z" style="fill:rgb(29,29,27);fill-rule:nonzero;"/>
            <rect x="26.953" y="224.644" width="3.589" height="35.913" style="fill:rgb(29,29,27);fill-rule:nonzero;"/>
            <path d="M37.134,260.557L42.236,224.644L42.822,224.644L57.422,254.112L71.875,224.644L72.461,224.644L77.612,260.557L74.072,260.557L70.557,234.874L57.861,260.557L56.958,260.557L44.092,234.678L40.601,260.557L37.134,260.557Z" style="fill:rgb(29,29,27);fill-rule:nonzero;"/>
            <rect x="84.204" y="224.644" width="3.589" height="35.913" style="fill:rgb(29,29,27);fill-rule:nonzero;"/>
            <path d="M92.456,228.135L92.456,224.644L112.158,224.644L112.158,228.135L104.15,228.135L104.15,260.557L100.488,260.557L100.488,228.135L92.456,228.135Z" style="fill:rgb(29,29,27);fill-rule:nonzero;"/>
            <path d="M117.31,224.644L120.923,224.644L120.923,257.091L134.717,257.091L134.717,260.557L117.31,260.557L117.31,224.644Z" style="fill:rgb(29,29,27);fill-rule:nonzero;"/>
            <path d="M140.43,224.644L161.011,224.644L161.011,228.184L144.019,228.184L144.019,239.415L160.864,239.415L160.864,242.93L144.019,242.93L144.019,257.017L160.864,257.017L160.864,260.557L140.43,260.557L140.43,224.644Z" style="fill:rgb(29,29,27);fill-rule:nonzero;"/>
            <path d="M163.501,253.868L166.553,252.037C168.701,255.992 171.183,257.969 173.999,257.969C175.203,257.969 176.335,257.689 177.393,257.127C178.451,256.566 179.256,255.813 179.81,254.869C180.363,253.925 180.64,252.924 180.64,251.866C180.64,250.661 180.233,249.481 179.419,248.326C178.296,246.731 176.245,244.81 173.267,242.564C170.272,240.302 168.408,238.666 167.676,237.657C166.406,235.964 165.771,234.133 165.771,232.164C165.771,230.601 166.146,229.177 166.895,227.891C167.643,226.605 168.697,225.592 170.056,224.852C171.415,224.111 172.892,223.741 174.487,223.741C176.18,223.741 177.763,224.16 179.236,224.998C180.709,225.836 182.267,227.379 183.911,229.625L180.981,231.846C179.631,230.056 178.479,228.876 177.527,228.306C176.575,227.737 175.537,227.452 174.414,227.452C172.965,227.452 171.781,227.891 170.862,228.77C169.942,229.649 169.482,230.731 169.482,232.017C169.482,232.799 169.645,233.555 169.971,234.288C170.296,235.02 170.89,235.818 171.753,236.68C172.225,237.136 173.771,238.332 176.392,240.269C179.5,242.564 181.632,244.607 182.788,246.397C183.944,248.188 184.521,249.986 184.521,251.793C184.521,254.397 183.533,256.659 181.555,258.58C179.578,260.5 177.173,261.461 174.341,261.461C172.16,261.461 170.182,260.879 168.408,259.715C166.634,258.551 164.998,256.602 163.501,253.868Z" style="fill:rgb(29,29,27);fill-rule:nonzero;"/>
            <path d="M188.403,253.868L191.455,252.037C193.604,255.992 196.086,257.969 198.901,257.969C200.106,257.969 201.237,257.689 202.295,257.127C203.353,256.566 204.159,255.813 204.712,254.869C205.265,253.925 205.542,252.924 205.542,251.866C205.542,250.661 205.135,249.481 204.321,248.326C203.198,246.731 201.147,244.81 198.169,242.564C195.174,240.302 193.311,238.666 192.578,237.657C191.309,235.964 190.674,234.133 190.674,232.164C190.674,230.601 191.048,229.177 191.797,227.891C192.546,226.605 193.599,225.592 194.958,224.852C196.318,224.111 197.795,223.741 199.39,223.741C201.082,223.741 202.665,224.16 204.138,224.998C205.611,225.836 207.17,227.379 208.813,229.625L205.884,231.846C204.533,230.056 203.381,228.876 202.429,228.306C201.477,227.737 200.439,227.452 199.316,227.452C197.868,227.452 196.684,227.891 195.764,228.77C194.845,229.649 194.385,230.731 194.385,232.017C194.385,232.799 194.548,233.555 194.873,234.288C195.199,235.02 195.793,235.818 196.655,236.68C197.127,237.136 198.674,238.332 201.294,240.269C204.403,242.564 206.535,244.607 207.69,246.397C208.846,248.188 209.424,249.986 209.424,251.793C209.424,254.397 208.435,256.659 206.458,258.58C204.48,260.5 202.075,261.461 199.243,261.461C197.062,261.461 195.085,260.879 193.311,259.715C191.536,258.551 189.901,256.602 188.403,253.868Z" style="fill:rgb(29,29,27);fill-rule:nonzero;"/>
        </g>
        <g transform="matrix(0.707107,-0.707107,-0.707107,-0.707107,126.849,212.771)">
            <rect x="-8.39" y="20.256" width="144.521" height="36.13" style="fill:rgb(166,26,22);"/>
        </g>
        <g transform="matrix(0.707107,-0.707107,-0.707107,-0.707107,101.298,187.22)">
            <rect x="-8.39" y="20.256" width="144.521" height="36.13" style="fill:rgb(198,70,23);"/>
        </g>
        <g transform="matrix(0.707107,-0.707107,-0.707107,-0.707107,75.7555,161.677)">
            <rect x="-8.39" y="20.256" width="144.52" height="36.13" style="fill:rgb(203,156,3);"/>
        </g>
        <g transform="matrix(-0.70711,0.707103,0.707103,0.70711,86.3376,136.13)">
            <rect x="-110.582" y="-81.935" width="144.521" height="36.13" style="fill:rgb(11,120,114);"/>
        </g>
        <g transform="matrix(0.707118,-0.707095,-0.707095,-0.707118,162.643,126.356)">
            <rect x="6.435" y="-15.537" width="43.28" height="36.13" style="fill:rgb(206,19,27);"/>
        </g>
        <g transform="matrix(0.707115,-0.707099,-0.707099,-0.707115,130.076,117.759)">
            <rect x="3.528" y="-8.518" width="63.136" height="36.13" style="fill:rgb(236,102,51);"/>
        </g>
        <g transform="matrix(0.707101,-0.707113,-0.707113,-0.707101,97.5104,109.159)">
            <rect x="0.619" y="-1.497" width="82.991" height="36.13" style="fill:rgb(253,215,46);"/>
        </g>
        <g transform="matrix(-0.707107,0.707107,0.707107,0.707107,101.071,100.559)">
            <rect x="-75.012" y="-67.2" width="102.847" height="36.13" style="fill:rgb(9,147,143);"/>
        </g>
    </g>
</svg>
